<?xml version="1.0" encoding="UTF-8" standalone="no"?>
<svg
   viewBox="0 0 465.56644 328.24332"
   height="328.24332"
   width="465.56644"
   xml:space="preserve"
   id="svg2"
   version="1.1"
   sodipodi:docname="v3-search-skipped.svg"
   inkscape:version="1.2.1 (1:1.2.1+202210291244+9c6d41e410)"
   xmlns:inkscape="http://www.inkscape.org/namespaces/inkscape"
   xmlns:sodipodi="http://sodipodi.sourceforge.net/DTD/sodipodi-0.dtd"
   xmlns="http://www.w3.org/2000/svg"
   xmlns:svg="http://www.w3.org/2000/svg"
   xmlns:rdf="http://www.w3.org/1999/02/22-rdf-syntax-ns#"
   xmlns:cc="http://creativecommons.org/ns#"
   xmlns:dc="http://purl.org/dc/elements/1.1/"><sodipodi:namedview
     id="namedview189"
     pagecolor="#ffffff"
     bordercolor="#000000"
     borderopacity="0.25"
     inkscape:showpageshadow="2"
     inkscape:pageopacity="0.0"
     inkscape:pagecheckerboard="0"
     inkscape:deskcolor="#d1d1d1"
     showgrid="false"
     inkscape:zoom="1.7458333"
     inkscape:cx="227.97136"
     inkscape:cy="162.38663"
     inkscape:window-width="1920"
     inkscape:window-height="1009"
     inkscape:window-x="0"
     inkscape:window-y="0"
     inkscape:window-maximized="1"
     inkscape:current-layer="svg2" /><metadata
     id="metadata8"><rdf:RDF><cc:Work
         rdf:about=""><dc:format>image/svg+xml</dc:format><dc:type
           rdf:resource="http://purl.org/dc/dcmitype/StillImage" /></cc:Work></rdf:RDF></metadata><defs
     id="defs6"><clipPath
       id="clipPath14"
       clipPathUnits="userSpaceOnUse"><path
         id="path12"
         d="M 0,0 H 360 V 252 H 0 Z" /></clipPath></defs><g
     clip-path="url(#clipPath14)"
     transform="matrix(1.3333333,0,0,-1.3333333,-1.5002133,331.45533)"
     id="g10"><g
       transform="scale(0.1)"
       id="g16"><path
         id="path18"
         style="fill:none;stroke:#000000;stroke-width:2.5;stroke-linecap:butt;stroke-linejoin:miter;stroke-miterlimit:3.8;stroke-dasharray:none;stroke-opacity:1"
         d="M 236.5,330 H 268 m 3232.5,0 H 3469" /><g
         transform="scale(10)"
         id="g20"><text
   id="text24"
   style="font-variant:normal;font-weight:normal;font-size:5.5px;font-family:Helvetica;-inkscape-font-specification:Helvetica;writing-mode:lr-tb;fill:#000000;fill-opacity:1;fill-rule:nonzero;stroke:none"
   transform="matrix(1,0,0,-1,17.2923,31.1648)"><tspan
     id="tspan22"
     y="0"
     x="0">0</tspan></text>
</g><path
         id="path26"
         style="fill:none;stroke:#000000;stroke-width:2.5;stroke-linecap:butt;stroke-linejoin:miter;stroke-miterlimit:3.8;stroke-dasharray:none;stroke-opacity:1"
         d="M 236.5,757 H 268 m 3232.5,0 H 3469" /><g
         transform="scale(10)"
         id="g28"><text
   id="text32"
   style="font-variant:normal;font-weight:normal;font-size:5.5px;font-family:Helvetica;-inkscape-font-specification:Helvetica;writing-mode:lr-tb;fill:#000000;fill-opacity:1;fill-rule:nonzero;stroke:none"
   transform="matrix(1,0,0,-1,14.2345,73.8648)"><tspan
     id="tspan30"
     y="0"
     x="0 3.0580001">10</tspan></text>
</g><path
         id="path34"
         style="fill:none;stroke:#000000;stroke-width:2.5;stroke-linecap:butt;stroke-linejoin:miter;stroke-miterlimit:3.8;stroke-dasharray:none;stroke-opacity:1"
         d="M 236.5,1184 H 268 m 3232.5,0 H 3469" /><g
         transform="scale(10)"
         id="g36"><text
   id="text40"
   style="font-variant:normal;font-weight:normal;font-size:5.5px;font-family:Helvetica;-inkscape-font-specification:Helvetica;writing-mode:lr-tb;fill:#000000;fill-opacity:1;fill-rule:nonzero;stroke:none"
   transform="matrix(1,0,0,-1,14.2345,116.565)"><tspan
     id="tspan38"
     y="0"
     x="0 3.0580001">20</tspan></text>
</g><path
         id="path42"
         style="fill:none;stroke:#000000;stroke-width:2.5;stroke-linecap:butt;stroke-linejoin:miter;stroke-miterlimit:3.8;stroke-dasharray:none;stroke-opacity:1"
         d="M 236.5,1610.5 H 268 m 3232.5,0 H 3469" /><g
         transform="scale(10)"
         id="g44"><text
   id="text48"
   style="font-variant:normal;font-weight:normal;font-size:5.5px;font-family:Helvetica;-inkscape-font-specification:Helvetica;writing-mode:lr-tb;fill:#000000;fill-opacity:1;fill-rule:nonzero;stroke:none"
   transform="matrix(1,0,0,-1,14.2345,159.215)"><tspan
     id="tspan46"
     y="0"
     x="0 3.0580001">30</tspan></text>
</g><path
         id="path50"
         style="fill:none;stroke:#000000;stroke-width:2.5;stroke-linecap:butt;stroke-linejoin:miter;stroke-miterlimit:3.8;stroke-dasharray:none;stroke-opacity:1"
         d="M 236.5,2037.5 H 268 m 3232.5,0 H 3469" /><g
         transform="scale(10)"
         id="g52"><text
   id="text56"
   style="font-variant:normal;font-weight:normal;font-size:5.5px;font-family:Helvetica;-inkscape-font-specification:Helvetica;writing-mode:lr-tb;fill:#000000;fill-opacity:1;fill-rule:nonzero;stroke:none"
   transform="matrix(1,0,0,-1,14.2345,201.915)"><tspan
     id="tspan54"
     y="0"
     x="0 3.0580001">40</tspan></text>
</g><path
         id="path58"
         style="fill:none;stroke:#000000;stroke-width:2.5;stroke-linecap:butt;stroke-linejoin:miter;stroke-miterlimit:3.8;stroke-dasharray:none;stroke-opacity:1"
         d="M 236.5,2464.5 H 268 m 3232.5,0 H 3469" /><g
         transform="scale(10)"
         id="g60"><text
   id="text64"
   style="font-variant:normal;font-weight:normal;font-size:5.5px;font-family:Helvetica;-inkscape-font-specification:Helvetica;writing-mode:lr-tb;fill:#000000;fill-opacity:1;fill-rule:nonzero;stroke:none"
   transform="matrix(1,0,0,-1,14.2345,244.615)"><tspan
     id="tspan62"
     y="0"
     x="0 3.0580001">50</tspan></text>
</g><path
         id="path66"
         style="fill:none;stroke:#000000;stroke-width:2.5;stroke-linecap:butt;stroke-linejoin:miter;stroke-miterlimit:3.8;stroke-dasharray:none;stroke-opacity:1"
         d="m 345.5,330 v 31.5 m 0,2103 V 2433" /><g
         transform="scale(10)"
         id="g68"><text
   id="text72"
   style="font-variant:normal;font-weight:normal;font-size:5.5px;font-family:Helvetica;-inkscape-font-specification:Helvetica;writing-mode:lr-tb;fill:#000000;fill-opacity:1;fill-rule:nonzero;stroke:none"
   transform="matrix(0,1,1,0,36.3852,2.2)"><tspan
     id="tspan70"
     y="0"
     x="0 4.2789998 6.1104999 7.3315001">O-lb</tspan></text>
</g><path
         id="path74"
         style="fill:none;stroke:#000000;stroke-width:2.5;stroke-linecap:butt;stroke-linejoin:miter;stroke-miterlimit:3.8;stroke-dasharray:none;stroke-opacity:1"
         d="m 454,330 v 31.5 m 0,2103 V 2433" /><g
         transform="scale(10)"
         id="g76"><text
   id="text80"
   style="font-variant:normal;font-weight:normal;font-size:5.5px;font-family:Helvetica;-inkscape-font-specification:Helvetica;writing-mode:lr-tb;fill:#000000;fill-opacity:1;fill-rule:nonzero;stroke:none"
   transform="matrix(0,1,1,0,47.2352,2.2)"><tspan
     id="tspan78"
     y="0"
     x="0 4.2789998 6.1104999 7.3315001 10.3895">O-lat</tspan></text>
</g><path
         id="path82"
         style="fill:none;stroke:#000000;stroke-width:2.5;stroke-linecap:butt;stroke-linejoin:miter;stroke-miterlimit:3.8;stroke-dasharray:none;stroke-opacity:1"
         d="m 563,330 v 31.5 m 0,2103 V 2433" /><g
         transform="scale(10)"
         id="g84"><text
   id="text88"
   style="font-variant:normal;font-weight:normal;font-size:5.5px;font-family:Helvetica;-inkscape-font-specification:Helvetica;writing-mode:lr-tb;fill:#000000;fill-opacity:1;fill-rule:nonzero;stroke:none"
   transform="matrix(0,1,1,0,58.1352,2.2)"><tspan
     id="tspan86"
     y="0"
     x="0 4.2789998 6.1104999 9.1684999 11.9185">O-hyb</tspan></text>
</g><path
         id="path90"
         style="fill:none;stroke:#000000;stroke-width:2.5;stroke-linecap:butt;stroke-linejoin:miter;stroke-miterlimit:3.8;stroke-dasharray:none;stroke-opacity:1"
         d="m 671.5,330 v 31.5 m 0,2103 V 2433" /><g
         transform="scale(10)"
         id="g92"><text
   id="text96"
   style="font-variant:normal;font-weight:normal;font-size:5.5px;font-family:Helvetica;-inkscape-font-specification:Helvetica;writing-mode:lr-tb;fill:#000000;fill-opacity:1;fill-rule:nonzero;stroke:none"
   transform="matrix(0,1,1,0,68.9852,2.2)"><tspan
     id="tspan94"
     y="0"
     x="0 3.971 5.8024998 8.8605003 11.6105 14.6685 16.5 17.721001">H-hyb-if</tspan></text>
</g><path
         id="path98"
         style="fill:none;stroke:#000000;stroke-width:2.5;stroke-linecap:butt;stroke-linejoin:miter;stroke-miterlimit:3.8;stroke-dasharray:none;stroke-opacity:1"
         d="m 780.5,330 v 31.5 m 0,2103 V 2433" /><g
         transform="scale(10)"
         id="g100"><text
   id="text104"
   style="font-variant:normal;font-weight:normal;font-size:5.5px;font-family:Helvetica;-inkscape-font-specification:Helvetica;writing-mode:lr-tb;fill:#000000;fill-opacity:1;fill-rule:nonzero;stroke:none"
   transform="matrix(0,1,1,0,79.8852,2.2)"><tspan
     id="tspan102"
     y="0"
     x="0 3.971 5.8024998 8.8605003 11.6105">H-hyb</tspan></text>
</g><path
         id="path106"
         style="fill:none;stroke:#000000;stroke-width:2.5;stroke-linecap:butt;stroke-linejoin:miter;stroke-miterlimit:3.8;stroke-dasharray:none;stroke-opacity:1"
         d="m 998,330 v 31.5 m 0,2103 V 2433" /><g
         transform="scale(10)"
         id="g108"><text
   id="text112"
   style="font-variant:normal;font-weight:normal;font-size:5.5px;font-family:Helvetica;-inkscape-font-specification:Helvetica;writing-mode:lr-tb;fill:#000000;fill-opacity:1;fill-rule:nonzero;stroke:none"
   transform="matrix(0,1,1,0,101.635,2.2)"><tspan
     id="tspan110"
     y="0"
     x="0 4.2789998 6.1104999 7.3315001">O-lb</tspan></text>
</g><path
         id="path114"
         style="fill:none;stroke:#000000;stroke-width:2.5;stroke-linecap:butt;stroke-linejoin:miter;stroke-miterlimit:3.8;stroke-dasharray:none;stroke-opacity:1"
         d="m 1107,330 v 31.5 m 0,2103 V 2433" /><g
         transform="scale(10)"
         id="g116"><text
   id="text120"
   style="font-variant:normal;font-weight:normal;font-size:5.5px;font-family:Helvetica;-inkscape-font-specification:Helvetica;writing-mode:lr-tb;fill:#000000;fill-opacity:1;fill-rule:nonzero;stroke:none"
   transform="matrix(0,1,1,0,112.535,2.2)"><tspan
     id="tspan118"
     y="0"
     x="0 4.2789998 6.1104999 7.3315001 10.3895">O-lat</tspan></text>
</g><path
         id="path122"
         style="fill:none;stroke:#000000;stroke-width:2.5;stroke-linecap:butt;stroke-linejoin:miter;stroke-miterlimit:3.8;stroke-dasharray:none;stroke-opacity:1"
         d="m 1215.5,330 v 31.5 m 0,2103 V 2433" /><g
         transform="scale(10)"
         id="g124"><text
   id="text128"
   style="font-variant:normal;font-weight:normal;font-size:5.5px;font-family:Helvetica;-inkscape-font-specification:Helvetica;writing-mode:lr-tb;fill:#000000;fill-opacity:1;fill-rule:nonzero;stroke:none"
   transform="matrix(0,1,1,0,123.385,2.2)"><tspan
     id="tspan126"
     y="0"
     x="0 4.2789998 6.1104999 9.1684999 11.9185">O-hyb</tspan></text>
</g><path
         id="path130"
         style="fill:none;stroke:#000000;stroke-width:2.5;stroke-linecap:butt;stroke-linejoin:miter;stroke-miterlimit:3.8;stroke-dasharray:none;stroke-opacity:1"
         d="m 1324.5,330 v 31.5 m 0,2103 V 2433" /><g
         transform="scale(10)"
         id="g132"><text
   id="text136"
   style="font-variant:normal;font-weight:normal;font-size:5.5px;font-family:Helvetica;-inkscape-font-specification:Helvetica;writing-mode:lr-tb;fill:#000000;fill-opacity:1;fill-rule:nonzero;stroke:none"
   transform="matrix(0,1,1,0,134.285,2.2)"><tspan
     id="tspan134"
     y="0"
     x="0 3.971 5.8024998 8.8605003 11.6105 14.6685 16.5 17.721001">H-hyb-if</tspan></text>
</g><path
         id="path138"
         style="fill:none;stroke:#000000;stroke-width:2.5;stroke-linecap:butt;stroke-linejoin:miter;stroke-miterlimit:3.8;stroke-dasharray:none;stroke-opacity:1"
         d="m 1433.5,330 v 31.5 m 0,2103 V 2433" /><g
         transform="scale(10)"
         id="g140"><text
   id="text144"
   style="font-variant:normal;font-weight:normal;font-size:5.5px;font-family:Helvetica;-inkscape-font-specification:Helvetica;writing-mode:lr-tb;fill:#000000;fill-opacity:1;fill-rule:nonzero;stroke:none"
   transform="matrix(0,1,1,0,145.185,2.2)"><tspan
     id="tspan142"
     y="0"
     x="0 3.971 5.8024998 8.8605003 11.6105">H-hyb</tspan></text>
</g><path
         id="path146"
         style="fill:none;stroke:#000000;stroke-width:2.5;stroke-linecap:butt;stroke-linejoin:miter;stroke-miterlimit:3.8;stroke-dasharray:none;stroke-opacity:1"
         d="m 1651,330 v 31.5 m 0,2103 V 2433" /><g
         transform="scale(10)"
         id="g148"><text
   id="text152"
   style="font-variant:normal;font-weight:normal;font-size:5.5px;font-family:Helvetica;-inkscape-font-specification:Helvetica;writing-mode:lr-tb;fill:#000000;fill-opacity:1;fill-rule:nonzero;stroke:none"
   transform="matrix(0,1,1,0,166.935,2.2)"><tspan
     id="tspan150"
     y="0"
     x="0 4.2789998 6.1104999 7.3315001">O-lb</tspan></text>
</g><path
         id="path154"
         style="fill:none;stroke:#000000;stroke-width:2.5;stroke-linecap:butt;stroke-linejoin:miter;stroke-miterlimit:3.8;stroke-dasharray:none;stroke-opacity:1"
         d="m 1759.5,330 v 31.5 m 0,2103 V 2433" /><g
         transform="scale(10)"
         id="g156"><text
   id="text160"
   style="font-variant:normal;font-weight:normal;font-size:5.5px;font-family:Helvetica;-inkscape-font-specification:Helvetica;writing-mode:lr-tb;fill:#000000;fill-opacity:1;fill-rule:nonzero;stroke:none"
   transform="matrix(0,1,1,0,177.785,2.2)"><tspan
     id="tspan158"
     y="0"
     x="0 4.2789998 6.1104999 7.3315001 10.3895">O-lat</tspan></text>
</g><path
         id="path162"
         style="fill:none;stroke:#000000;stroke-width:2.5;stroke-linecap:butt;stroke-linejoin:miter;stroke-miterlimit:3.8;stroke-dasharray:none;stroke-opacity:1"
         d="m 1868.5,330 v 31.5 m 0,2103 V 2433" /><g
         transform="scale(10)"
         id="g164"><text
   id="text168"
   style="font-variant:normal;font-weight:normal;font-size:5.5px;font-family:Helvetica;-inkscape-font-specification:Helvetica;writing-mode:lr-tb;fill:#000000;fill-opacity:1;fill-rule:nonzero;stroke:none"
   transform="matrix(0,1,1,0,188.685,2.2)"><tspan
     id="tspan166"
     y="0"
     x="0 4.2789998 6.1104999 9.1684999 11.9185">O-hyb</tspan></text>
</g><path
         id="path170"
         style="fill:none;stroke:#000000;stroke-width:2.5;stroke-linecap:butt;stroke-linejoin:miter;stroke-miterlimit:3.8;stroke-dasharray:none;stroke-opacity:1"
         d="m 1977.5,330 v 31.5 m 0,2103 V 2433" /><g
         transform="scale(10)"
         id="g172"><text
   id="text176"
   style="font-variant:normal;font-weight:normal;font-size:5.5px;font-family:Helvetica;-inkscape-font-specification:Helvetica;writing-mode:lr-tb;fill:#000000;fill-opacity:1;fill-rule:nonzero;stroke:none"
   transform="matrix(0,1,1,0,199.585,2.2)"><tspan
     id="tspan174"
     y="0"
     x="0 3.971 5.8024998 8.8605003 11.6105 14.6685 16.5 17.721001">H-hyb-if</tspan></text>
</g><path
         id="path178"
         style="fill:none;stroke:#000000;stroke-width:2.5;stroke-linecap:butt;stroke-linejoin:miter;stroke-miterlimit:3.8;stroke-dasharray:none;stroke-opacity:1"
         d="m 2086,330 v 31.5 m 0,2103 V 2433" /><g
         transform="scale(10)"
         id="g180"><text
   id="text184"
   style="font-variant:normal;font-weight:normal;font-size:5.5px;font-family:Helvetica;-inkscape-font-specification:Helvetica;writing-mode:lr-tb;fill:#000000;fill-opacity:1;fill-rule:nonzero;stroke:none"
   transform="matrix(0,1,1,0,210.435,2.2)"><tspan
     id="tspan182"
     y="0"
     x="0 3.971 5.8024998 8.8605003 11.6105">H-hyb</tspan></text>
</g><path
         id="path186"
         style="fill:none;stroke:#000000;stroke-width:2.5;stroke-linecap:butt;stroke-linejoin:miter;stroke-miterlimit:3.8;stroke-dasharray:none;stroke-opacity:1"
         d="m 2303.5,330 v 31.5 m 0,2103 V 2433" /><g
         transform="scale(10)"
         id="g188"><text
   id="text192"
   style="font-variant:normal;font-weight:normal;font-size:5.5px;font-family:Helvetica;-inkscape-font-specification:Helvetica;writing-mode:lr-tb;fill:#000000;fill-opacity:1;fill-rule:nonzero;stroke:none"
   transform="matrix(0,1,1,0,232.185,2.2)"><tspan
     id="tspan190"
     y="0"
     x="0 4.2789998 6.1104999 7.3315001">O-lb</tspan></text>
</g><path
         id="path194"
         style="fill:none;stroke:#000000;stroke-width:2.5;stroke-linecap:butt;stroke-linejoin:miter;stroke-miterlimit:3.8;stroke-dasharray:none;stroke-opacity:1"
         d="m 2412.5,330 v 31.5 m 0,2103 V 2433" /><g
         transform="scale(10)"
         id="g196"><text
   id="text200"
   style="font-variant:normal;font-weight:normal;font-size:5.5px;font-family:Helvetica;-inkscape-font-specification:Helvetica;writing-mode:lr-tb;fill:#000000;fill-opacity:1;fill-rule:nonzero;stroke:none"
   transform="matrix(0,1,1,0,243.085,2.2)"><tspan
     id="tspan198"
     y="0"
     x="0 4.2789998 6.1104999 7.3315001 10.3895">O-lat</tspan></text>
</g><path
         id="path202"
         style="fill:none;stroke:#000000;stroke-width:2.5;stroke-linecap:butt;stroke-linejoin:miter;stroke-miterlimit:3.8;stroke-dasharray:none;stroke-opacity:1"
         d="m 2521.5,330 v 31.5 m 0,2103 V 2433" /><g
         transform="scale(10)"
         id="g204"><text
   id="text208"
   style="font-variant:normal;font-weight:normal;font-size:5.5px;font-family:Helvetica;-inkscape-font-specification:Helvetica;writing-mode:lr-tb;fill:#000000;fill-opacity:1;fill-rule:nonzero;stroke:none"
   transform="matrix(0,1,1,0,253.985,2.2)"><tspan
     id="tspan206"
     y="0"
     x="0 4.2789998 6.1104999 9.1684999 11.9185">O-hyb</tspan></text>
</g><path
         id="path210"
         style="fill:none;stroke:#000000;stroke-width:2.5;stroke-linecap:butt;stroke-linejoin:miter;stroke-miterlimit:3.8;stroke-dasharray:none;stroke-opacity:1"
         d="m 2630,330 v 31.5 m 0,2103 V 2433" /><g
         transform="scale(10)"
         id="g212"><text
   id="text216"
   style="font-variant:normal;font-weight:normal;font-size:5.5px;font-family:Helvetica;-inkscape-font-specification:Helvetica;writing-mode:lr-tb;fill:#000000;fill-opacity:1;fill-rule:nonzero;stroke:none"
   transform="matrix(0,1,1,0,264.835,2.2)"><tspan
     id="tspan214"
     y="0"
     x="0 3.971 5.8024998 8.8605003 11.6105 14.6685 16.5 17.721001">H-hyb-if</tspan></text>
</g><path
         id="path218"
         style="fill:none;stroke:#000000;stroke-width:2.5;stroke-linecap:butt;stroke-linejoin:miter;stroke-miterlimit:3.8;stroke-dasharray:none;stroke-opacity:1"
         d="m 2739,330 v 31.5 m 0,2103 V 2433" /><g
         transform="scale(10)"
         id="g220"><text
   id="text224"
   style="font-variant:normal;font-weight:normal;font-size:5.5px;font-family:Helvetica;-inkscape-font-specification:Helvetica;writing-mode:lr-tb;fill:#000000;fill-opacity:1;fill-rule:nonzero;stroke:none"
   transform="matrix(0,1,1,0,275.735,2.2)"><tspan
     id="tspan222"
     y="0"
     x="0 3.971 5.8024998 8.8605003 11.6105">H-hyb</tspan></text>
</g><path
         id="path226"
         style="fill:none;stroke:#000000;stroke-width:2.5;stroke-linecap:butt;stroke-linejoin:miter;stroke-miterlimit:3.8;stroke-dasharray:none;stroke-opacity:1"
         d="m 2956.5,330 v 31.5 m 0,2103 V 2433" /><g
         transform="scale(10)"
         id="g228"><text
   id="text232"
   style="font-variant:normal;font-weight:normal;font-size:5.5px;font-family:Helvetica;-inkscape-font-specification:Helvetica;writing-mode:lr-tb;fill:#000000;fill-opacity:1;fill-rule:nonzero;stroke:none"
   transform="matrix(0,1,1,0,297.485,2.2)"><tspan
     id="tspan230"
     y="0"
     x="0 4.2789998 6.1104999 7.3315001">O-lb</tspan></text>
</g><path
         id="path234"
         style="fill:none;stroke:#000000;stroke-width:2.5;stroke-linecap:butt;stroke-linejoin:miter;stroke-miterlimit:3.8;stroke-dasharray:none;stroke-opacity:1"
         d="m 3065.5,330 v 31.5 m 0,2103 V 2433" /><g
         transform="scale(10)"
         id="g236"><text
   id="text240"
   style="font-variant:normal;font-weight:normal;font-size:5.5px;font-family:Helvetica;-inkscape-font-specification:Helvetica;writing-mode:lr-tb;fill:#000000;fill-opacity:1;fill-rule:nonzero;stroke:none"
   transform="matrix(0,1,1,0,308.385,2.2)"><tspan
     id="tspan238"
     y="0"
     x="0 4.2789998 6.1104999 7.3315001 10.3895">O-lat</tspan></text>
</g><path
         id="path242"
         style="fill:none;stroke:#000000;stroke-width:2.5;stroke-linecap:butt;stroke-linejoin:miter;stroke-miterlimit:3.8;stroke-dasharray:none;stroke-opacity:1"
         d="m 3174,330 v 31.5 m 0,2103 V 2433" /><g
         transform="scale(10)"
         id="g244"><text
   id="text248"
   style="font-variant:normal;font-weight:normal;font-size:5.5px;font-family:Helvetica;-inkscape-font-specification:Helvetica;writing-mode:lr-tb;fill:#000000;fill-opacity:1;fill-rule:nonzero;stroke:none"
   transform="matrix(0,1,1,0,319.235,2.2)"><tspan
     id="tspan246"
     y="0"
     x="0 4.2789998 6.1104999 9.1684999 11.9185">O-hyb</tspan></text>
</g><path
         id="path250"
         style="fill:none;stroke:#000000;stroke-width:2.5;stroke-linecap:butt;stroke-linejoin:miter;stroke-miterlimit:3.8;stroke-dasharray:none;stroke-opacity:1"
         d="m 3283,330 v 31.5 m 0,2103 V 2433" /><g
         transform="scale(10)"
         id="g252"><text
   id="text256"
   style="font-variant:normal;font-weight:normal;font-size:5.5px;font-family:Helvetica;-inkscape-font-specification:Helvetica;writing-mode:lr-tb;fill:#000000;fill-opacity:1;fill-rule:nonzero;stroke:none"
   transform="matrix(0,1,1,0,330.135,2.2)"><tspan
     id="tspan254"
     y="0"
     x="0 3.971 5.8024998 8.8605003 11.6105 14.6685 16.5 17.721001">H-hyb-if</tspan></text>
</g><path
         id="path258"
         style="fill:none;stroke:#000000;stroke-width:2.5;stroke-linecap:butt;stroke-linejoin:miter;stroke-miterlimit:3.8;stroke-dasharray:none;stroke-opacity:1"
         d="m 3391.5,330 v 31.5 m 0,2103 V 2433" /><g
         transform="scale(10)"
         id="g260"><text
   id="text264"
   style="font-variant:normal;font-weight:normal;font-size:5.5px;font-family:Helvetica;-inkscape-font-specification:Helvetica;writing-mode:lr-tb;fill:#000000;fill-opacity:1;fill-rule:nonzero;stroke:none"
   transform="matrix(0,1,1,0,340.985,2.2)"><tspan
     id="tspan262"
     y="0"
     x="0 3.971 5.8024998 8.8605003 11.6105">H-hyb</tspan></text>
</g><path
         id="path266"
         style="fill:none;stroke:#000000;stroke-width:5;stroke-linecap:butt;stroke-linejoin:miter;stroke-miterlimit:3.8;stroke-dasharray:none;stroke-opacity:1"
         d="M 236.5,2464.5 V 330 h 3264 v 2134.5 z" /><path
         id="path268"
         style="fill:none;stroke:#1a1a70;stroke-width:5;stroke-linecap:butt;stroke-linejoin:miter;stroke-miterlimit:3.8;stroke-dasharray:20, 20, 20, 60;stroke-dashoffset:0;stroke-opacity:1"
         d="m 236.5,757 h 3264" /><path
         id="path270"
         style="fill:none;stroke:#1a1a70;stroke-width:5;stroke-linecap:butt;stroke-linejoin:miter;stroke-miterlimit:3.8;stroke-dasharray:20, 20, 20, 60;stroke-dashoffset:0;stroke-opacity:1"
         d="m 236.5,1184 h 3264" /><path
         id="path272"
         style="fill:none;stroke:#1a1a70;stroke-width:5;stroke-linecap:butt;stroke-linejoin:miter;stroke-miterlimit:3.8;stroke-dasharray:20, 20, 20, 60;stroke-dashoffset:0;stroke-opacity:1"
         d="m 236.5,1610.5 h 3264" /><path
         id="path274"
         style="fill:none;stroke:#1a1a70;stroke-width:5;stroke-linecap:butt;stroke-linejoin:miter;stroke-miterlimit:3.8;stroke-dasharray:20, 20, 20, 60;stroke-dashoffset:0;stroke-opacity:1"
         d="m 236.5,2037.5 h 3264" /><g
         transform="scale(10)"
         id="g276"><text
   id="text280"
   style="font-variant:normal;font-weight:normal;font-size:10px;font-family:Helvetica;-inkscape-font-specification:Helvetica;writing-mode:lr-tb;fill:#000000;fill-opacity:1;fill-rule:nonzero;stroke:none"
   transform="matrix(0,1,1,0,8.53516,73.8434)"><tspan
     id="tspan278"
     y="0"
     x="0 7.2199998 12.78 21.110001 26.67 32.23 35.560001 38.34 43.900002 46.68 49.459999 56.130001 61.130001 63.349998 68.910004 74.470001 80.029999 85.589996 88.370003 95.040001 100.6 106.16 109.49 114.49 120.05 122.83 125.61 128.94">Number of Skipped Search [-]</tspan></text>
<text
   id="text284"
   style="font-variant:normal;font-weight:normal;font-size:5.5px;font-family:Helvetica;-inkscape-font-specification:Helvetica;writing-mode:lr-tb;fill:#000000;fill-opacity:1;fill-rule:nonzero;stroke:none"
   transform="matrix(1,0,0,-1,317.992,238.715)"><tspan
     id="tspan282"
     y="0"
     x="0 2.75">cg</tspan></text>
</g><path
         id="path286"
         style="fill:#000000;fill-opacity:1;fill-rule:nonzero;stroke:none"
         d="m 3271,2392 h 163.5 v 27.5 H 3271 Z" /><path
         id="path288"
         style="fill:none;stroke:#000000;stroke-width:2.5;stroke-linecap:butt;stroke-linejoin:miter;stroke-miterlimit:3.8;stroke-dasharray:none;stroke-opacity:1"
         d="m 3271,2392 h 163.5 v 27 H 3271 Z" /><path
         id="path290"
         style="fill:#000000;fill-opacity:1;fill-rule:nonzero;stroke:none"
         d="m 644.5,330 h 55 v 342 h -55 z" /><path
         id="path292"
         style="fill:none;stroke:#000000;stroke-width:2.5;stroke-linecap:butt;stroke-linejoin:miter;stroke-miterlimit:3.8;stroke-dasharray:none;stroke-opacity:1"
         d="M 644.5,330 V 671.5 H 699 V 330 Z" /><g
         transform="scale(10)"
         id="g294"><text
   id="text298"
   style="font-variant:normal;font-weight:normal;font-size:5.5px;font-family:Helvetica;-inkscape-font-specification:Helvetica;writing-mode:lr-tb;fill:#000000;fill-opacity:1;fill-rule:nonzero;stroke:none"
   transform="matrix(1,0,0,-1,315.242,233.215)"><tspan
     id="tspan296"
     y="0"
     x="0 2.75 5.8080001">v2x</tspan></text>
</g><path
         id="path300"
         style="fill:#a1a1a1;fill-opacity:1;fill-rule:nonzero;stroke:none"
         d="m 3271,2337 h 163.5 v 27.5 H 3271 Z" /><path
         id="path302"
         style="fill:none;stroke:#000000;stroke-width:2.5;stroke-linecap:butt;stroke-linejoin:miter;stroke-miterlimit:3.8;stroke-dasharray:none;stroke-opacity:1"
         d="m 3271,2337 h 163.5 v 27 H 3271 Z" /><path
         id="path304"
         style="fill:#a1a1a1;fill-opacity:1;fill-rule:nonzero;stroke:none"
         d="m 644.5,671.5 h 55 V 1526 h -55 z" /><path
         id="path306"
         style="fill:none;stroke:#000000;stroke-width:2.5;stroke-linecap:butt;stroke-linejoin:miter;stroke-miterlimit:3.8;stroke-dasharray:none;stroke-opacity:1"
         d="m 644.5,671.5 v 854 H 699 v -854 z" /><g
         transform="scale(10)"
         id="g308"><text
   id="text312"
   style="font-variant:normal;font-weight:normal;font-size:5.5px;font-family:Helvetica;-inkscape-font-specification:Helvetica;writing-mode:lr-tb;fill:#000000;fill-opacity:1;fill-rule:nonzero;stroke:none"
   transform="matrix(1,0,0,-1,314.934,227.715)"><tspan
     id="tspan310"
     y="0"
     x="0 3.0580001 6.1160002">uav</tspan></text>
</g><path
         id="path314"
         style="fill:#d4d4d4;fill-opacity:1;fill-rule:nonzero;stroke:none"
         d="m 3271,2282 h 163.5 v 27.5 H 3271 Z" /><path
         id="path316"
         style="fill:none;stroke:#000000;stroke-width:2.5;stroke-linecap:butt;stroke-linejoin:miter;stroke-miterlimit:3.8;stroke-dasharray:none;stroke-opacity:1"
         d="m 3271,2282 h 163.5 v 27 H 3271 Z" /><path
         id="path318"
         style="fill:#d4d4d4;fill-opacity:1;fill-rule:nonzero;stroke:none"
         d="m 644.5,1525.5 h 55 V 2038 h -55 z" /><path
         id="path320"
         style="fill:none;stroke:#000000;stroke-width:2.5;stroke-linecap:butt;stroke-linejoin:miter;stroke-miterlimit:3.8;stroke-dasharray:none;stroke-opacity:1"
         d="m 644.5,1525.5 v 512 H 699 v -512 z" /><path
         id="path322"
         style="fill:#000000;fill-opacity:1;fill-rule:nonzero;stroke:none"
         d="m 1297.5,330 h 54.5 v 214 h -54.5 z" /><path
         id="path324"
         style="fill:none;stroke:#000000;stroke-width:2.5;stroke-linecap:butt;stroke-linejoin:miter;stroke-miterlimit:3.8;stroke-dasharray:none;stroke-opacity:1"
         d="m 1297.5,330 v 213.5 h 54 V 330 Z" /><path
         id="path326"
         style="fill:#a1a1a1;fill-opacity:1;fill-rule:nonzero;stroke:none"
         d="m 1297.5,543.5 h 54.5 v 641 h -54.5 z" /><path
         id="path328"
         style="fill:none;stroke:#000000;stroke-width:2.5;stroke-linecap:butt;stroke-linejoin:miter;stroke-miterlimit:3.8;stroke-dasharray:none;stroke-opacity:1"
         d="M 1297.5,543.5 V 1184 h 54 V 543.5 Z" /><path
         id="path330"
         style="fill:#d4d4d4;fill-opacity:1;fill-rule:nonzero;stroke:none"
         d="m 1297.5,1184 h 54.5 v 726 h -54.5 z" /><path
         id="path332"
         style="fill:none;stroke:#000000;stroke-width:2.5;stroke-linecap:butt;stroke-linejoin:miter;stroke-miterlimit:3.8;stroke-dasharray:none;stroke-opacity:1"
         d="m 1297.5,1184 v 725.5 h 54 V 1184 Z" /><path
         id="path334"
         style="fill:#000000;fill-opacity:1;fill-rule:nonzero;stroke:none"
         d="m 1950,330 h 55 v 598 h -55 z" /><path
         id="path336"
         style="fill:none;stroke:#000000;stroke-width:2.5;stroke-linecap:butt;stroke-linejoin:miter;stroke-miterlimit:3.8;stroke-dasharray:none;stroke-opacity:1"
         d="m 1950,330 v 597.5 h 54.5 V 330 Z" /><path
         id="path338"
         style="fill:#a1a1a1;fill-opacity:1;fill-rule:nonzero;stroke:none"
         d="m 1950,927.5 h 55 V 1654 h -55 z" /><path
         id="path340"
         style="fill:none;stroke:#000000;stroke-width:2.5;stroke-linecap:butt;stroke-linejoin:miter;stroke-miterlimit:3.8;stroke-dasharray:none;stroke-opacity:1"
         d="m 1950,927.5 v 726 h 54.5 v -726 z" /><path
         id="path342"
         style="fill:#d4d4d4;fill-opacity:1;fill-rule:nonzero;stroke:none"
         d="m 1950,1653.5 h 55 V 2209 h -55 z" /><path
         id="path344"
         style="fill:none;stroke:#000000;stroke-width:2.5;stroke-linecap:butt;stroke-linejoin:miter;stroke-miterlimit:3.8;stroke-dasharray:none;stroke-opacity:1"
         d="m 1950,1653.5 v 555 h 54.5 v -555 z" /><path
         id="path346"
         style="fill:#000000;fill-opacity:1;fill-rule:nonzero;stroke:none"
         d="m 2603,330 h 55 v 598 h -55 z" /><path
         id="path348"
         style="fill:none;stroke:#000000;stroke-width:2.5;stroke-linecap:butt;stroke-linejoin:miter;stroke-miterlimit:3.8;stroke-dasharray:none;stroke-opacity:1"
         d="m 2603,330 v 597.5 h 54.5 V 330 Z" /><path
         id="path350"
         style="fill:#a1a1a1;fill-opacity:1;fill-rule:nonzero;stroke:none"
         d="m 2603,927.5 h 55 v 385 h -55 z" /><path
         id="path352"
         style="fill:none;stroke:#000000;stroke-width:2.5;stroke-linecap:butt;stroke-linejoin:miter;stroke-miterlimit:3.8;stroke-dasharray:none;stroke-opacity:1"
         d="M 2603,927.5 V 1312 h 54.5 V 927.5 Z" /><path
         id="path354"
         style="fill:#d4d4d4;fill-opacity:1;fill-rule:nonzero;stroke:none"
         d="m 2603,1312 h 55 v 726 h -55 z" /><path
         id="path356"
         style="fill:none;stroke:#000000;stroke-width:2.5;stroke-linecap:butt;stroke-linejoin:miter;stroke-miterlimit:3.8;stroke-dasharray:none;stroke-opacity:1"
         d="m 2603,1312 v 725.5 h 54.5 V 1312 Z" /><path
         id="path358"
         style="fill:#000000;fill-opacity:1;fill-rule:nonzero;stroke:none"
         d="m 3255.5,330 h 55 v 384.5 h -55 z" /><path
         id="path360"
         style="fill:none;stroke:#000000;stroke-width:2.5;stroke-linecap:butt;stroke-linejoin:miter;stroke-miterlimit:3.8;stroke-dasharray:none;stroke-opacity:1"
         d="M 3255.5,330 V 714 H 3310 V 330 Z" /><path
         id="path362"
         style="fill:#a1a1a1;fill-opacity:1;fill-rule:nonzero;stroke:none"
         d="m 3255.5,714 h 55 v 684 h -55 z" /><path
         id="path364"
         style="fill:none;stroke:#000000;stroke-width:2.5;stroke-linecap:butt;stroke-linejoin:miter;stroke-miterlimit:3.8;stroke-dasharray:none;stroke-opacity:1"
         d="m 3255.5,714 v 683.5 H 3310 V 714 Z" /><path
         id="path366"
         style="fill:#d4d4d4;fill-opacity:1;fill-rule:nonzero;stroke:none"
         d="m 3255.5,1397.5 h 55 v 854 h -55 z" /><path
         id="path368"
         style="fill:none;stroke:#000000;stroke-width:2.5;stroke-linecap:butt;stroke-linejoin:miter;stroke-miterlimit:3.8;stroke-dasharray:none;stroke-opacity:1"
         d="M 3255.5,1397.5 V 2251 h 54.5 v -853.5 z" /><path
         id="path370"
         style="fill:none;stroke:#000000;stroke-width:5;stroke-linecap:butt;stroke-linejoin:miter;stroke-miterlimit:3.8;stroke-dasharray:none;stroke-opacity:1"
         d="M 236.5,2464.5 V 330 h 3264 v 2134.5 z" /><g
         transform="scale(10)"
         id="g372"><text
   id="text376"
   style="font-variant:normal;font-weight:normal;font-size:5.5px;font-family:Helvetica;-inkscape-font-specification:Helvetica;writing-mode:lr-tb;fill:#000000;fill-opacity:1;fill-rule:nonzero;stroke:none"
   transform="matrix(1,0,0,-1,311.975,22.6148)"><tspan
     id="tspan374"
     y="0"
     x="0 4.5815001 7.7934999 -65.25 -60.668499 -57.456501 -130.55 -125.9685 -122.7565 -195.85001 -191.26849 -188.0565 -261.10001 -256.51849 -253.3065">M=5M=4M=3M=2M=1</tspan></text>
</g></g></g><g
     inkscape:groupmode="layer"
     id="layer1"
     inkscape:label="Layer 1"
     transform="translate(60.168839,-77.613615)" /></svg>
